<svg>
    <symbol id="telegram" xmlns="http://www.w3.org/2000/svg" width="24" height="24" viewBox="0 0 24 24" fill="none">
        <g clip-path="url(#clip0_2_8)">
            <path d="M24 12C24 5.37258 18.6274 0 12 0C5.37258 0 0 5.37258 0 12C0 18.6274 5.37258 24 12 24C18.6274 24 24 18.6274 24 12Z" fill="#419FD9"/>
            <path d="M24 12C24 5.37258 18.6274 0 12 0C5.37258 0 0 5.37258 0 12C0 18.6274 5.37258 24 12 24C18.6274 24 24 18.6274 24 12Z" fill="url(#paint0_linear_2_8)"/>
            <path d="M5.3937 11.7354C8.88335 10.1831 11.2103 9.15974 12.3746 8.66524C15.6989 7.25349 16.3897 7.00824 16.84 7.00009C16.939 6.99839 17.1604 7.02344 17.3038 7.14224C17.4249 7.24259 17.4582 7.37814 17.4742 7.47324C17.4901 7.56839 17.51 7.78509 17.4942 7.95439C17.314 9.88699 16.5346 14.5769 16.138 16.7415C15.9702 17.6574 15.6398 17.9645 15.3199 17.9945C14.6248 18.0598 14.0969 17.5255 13.4236 17.0748C12.37 16.3697 11.7749 15.9307 10.7522 15.2427C9.57035 14.4475 10.3365 14.0104 11.01 13.2961C11.1863 13.1092 14.2491 10.2647 14.3084 10.0067C14.3158 9.97444 14.3227 9.85414 14.2527 9.79064C14.1827 9.72714 14.0794 9.74884 14.0049 9.76609C13.8992 9.79059 12.2161 10.9264 8.95565 13.1736C8.4779 13.5086 8.0452 13.6717 7.6575 13.6632C7.2301 13.6538 6.40795 13.4165 5.79675 13.2136C5.0471 12.9648 4.45127 12.8333 4.50315 12.4107C4.53017 12.1906 4.82701 11.9655 5.3937 11.7354Z" fill="white"/>
        </g>
        <defs>
            <linearGradient id="paint0_linear_2_8" x1="12" y1="0" x2="12" y2="23.822" gradientUnits="userSpaceOnUse">
            <stop stop-color="#2AABEE"/>
            <stop offset="1" stop-color="#229ED9"/>
            </linearGradient>
            <clipPath id="clip0_2_8">
            <rect width="24" height="24" fill="white"/>
            </clipPath>
        </defs>
    </symbol>
    <symbol id="bag" xmlns="http://www.w3.org/2000/svg" width="36" height="36" viewBox="0 0 36 36" fill="none">
        <rect width="36" height="36" rx="4" fill="#252525"/>
        <path d="M21.8098 13.5962C21.8098 11.6101 20.0987 10 17.9879 10C16.9714 9.99601 15.9951 10.3731 15.2748 11.048C14.5546 11.7228 14.1497 12.6398 14.1497 13.5962M21.6883 26H14.3036C11.5909 26 9.50992 25.0781 10.101 21.3676L10.7893 16.3391C11.1537 14.4877 12.4088 13.7791 13.51 13.7791H22.5143C23.6317 13.7791 24.8139 14.541 25.235 16.3391L25.9233 21.3676C26.4253 24.6591 24.401 26 21.6883 26Z" stroke="white" stroke-width="1.5" stroke-linecap="round" stroke-linejoin="round"/>
        <path d="M20.6111 17.3449H20.5713" stroke="white" stroke-width="1.5" stroke-linecap="round" stroke-linejoin="round"/>
        <path d="M15.4537 17.3449H15.413" stroke="white" stroke-width="1.5" stroke-linecap="round" stroke-linejoin="round"/>
    </symbol>
    <symbol id="search" xmlns="http://www.w3.org/2000/svg" width="36" height="36" viewBox="0 0 36 36" fill="none">
        <rect width="36" height="36" rx="4" fill="#252525"/>
        <path d="M26.7043 25.2848L23.3054 21.8958C24.402 20.4988 24.9971 18.7735 24.9948 16.9974C24.9948 15.4157 24.5258 13.8695 23.647 12.5543C22.7683 11.2391 21.5192 10.2141 20.0579 9.60877C18.5966 9.00347 16.9886 8.84509 15.4372 9.15367C13.8859 9.46225 12.4609 10.2239 11.3424 11.3424C10.2239 12.4609 9.46225 13.8859 9.15367 15.4372C8.84509 16.9886 9.00347 18.5966 9.60877 20.0579C10.2141 21.5192 11.2391 22.7683 12.5543 23.647C13.8695 24.5258 15.4157 24.9948 16.9974 24.9948C18.7735 24.9971 20.4988 24.402 21.8958 23.3054L25.2848 26.7043C25.3777 26.798 25.4883 26.8724 25.6101 26.9231C25.7319 26.9739 25.8626 27 25.9945 27C26.1265 27 26.2572 26.9739 26.379 26.9231C26.5008 26.8724 26.6114 26.798 26.7043 26.7043C26.798 26.6114 26.8724 26.5008 26.9231 26.379C26.9739 26.2572 27 26.1265 27 25.9945C27 25.8626 26.9739 25.7319 26.9231 25.6101C26.8724 25.4883 26.798 25.3777 26.7043 25.2848ZM10.9994 16.9974C10.9994 15.8111 11.3511 14.6515 12.0102 13.6651C12.6693 12.6787 13.6061 11.9099 14.7021 11.4559C15.7981 11.002 17.0041 10.8832 18.1676 11.1146C19.3311 11.346 20.3999 11.9173 21.2387 12.7562C22.0775 13.595 22.6488 14.6638 22.8802 15.8273C23.1117 16.9908 22.9929 18.1968 22.5389 19.2928C22.0849 20.3888 21.3162 21.3256 20.3298 21.9846C19.3434 22.6437 18.1837 22.9955 16.9974 22.9955C15.4066 22.9955 13.881 22.3636 12.7562 21.2387C11.6313 20.1138 10.9994 18.5882 10.9994 16.9974Z" fill="white"/>
    </symbol>
    <symbol id="exit-modal" xmlns="http://www.w3.org/2000/svg" width="24" height="24" viewBox="0 0 24 24" fill="none">
        <circle cx="12" cy="12" r="11.5" transform="rotate(90 12 12)" stroke="white"/>
        <path d="M8 8L16 16" stroke="white" stroke-linecap="round"/>
        <path d="M16 8L8 16" stroke="white" stroke-linecap="round"/>
    </symbol>
</svg>